<svg xmlns="http://www.w3.org/2000/svg" viewBox="0 0 215.25 337.65"><g id="Layer_2" data-name="Layer 2"><g id="Layer_2-2" data-name="Layer 2"><path d="M186.75,145a55.8,55.8,0,0,1-7.8,18.65c-10,15.08-24.37,28.13-39.13,38.41-12.64,8.8-19.91,13.13-25.85,16.52-6.76,3.87-21.18,11.91-29.66,18.22s-17,13.41-22.45,22.46c.13-7.19,0-13.41,2.74-20.22,5.94-14.71,20.42-24.9,33-33.6,11.67-8,24.23-14.66,35.47-23.35,7.78-6,16-13.15,20.9-21.77a69,69,0,0,0,8.63-23.63c2.52-16.31.81-36.34-17.92-41.42-10.81-2.93-23.19-2.17-34.22-1.07-10.8,1.08-23.1,3.1-32.84,8.15a17.32,17.32,0,0,0-7.2,6.49c-1.9,3.33-2.21,7.32-2.17,11.15s1,15.34,1,15.34l-27.11,3s-2.35-18.68-2.47-26.74c-.11-7.11-1-14.24,2.26-20.89,2.36-4.77,6.5-8.48,11.08-11.18C66,71.8,82.4,67.19,97.21,64.88q3.32-.52,6.66-.88c28-3,58.67-1,74.09,26C187,105.93,190.88,126.69,186.75,145Z"/><path d="M57.79,273.46l.26-14.27c0-.59,0-1.16,0-1.74.11-6.64.2-12.92,3-19.83,6.48-16.06,22-26.74,34.42-35.32,4.82-3.32,9.83-6.43,14.68-9.44a243.46,243.46,0,0,0,20.62-13.79c6.78-5.24,15.18-12.32,19.92-20.64a64.46,64.46,0,0,0,8.17-22.32c1-6.31,1.61-15.45-.86-23.18-2.37-7.44-7-12-14.28-14-10-2.72-21.72-2.07-32.85-1-8.79.88-21.61,2.64-31.46,7.75a13.7,13.7,0,0,0-5.64,5c-1.54,2.68-1.71,6.17-1.68,9.22,0,3.65,1,15,1,15.06l.31,3.7-34.54,3.78-.47-3.72c-.09-.77-2.37-19-2.5-27.16,0-1.1,0-2.25-.09-3.35-.21-6.32-.43-12.85,2.75-19.29C41,84,45.32,79.6,51.09,76.19c15.19-9,33.14-13.15,45.53-15.08,2.26-.35,4.56-.65,6.84-.9,25-2.66,60.37-2.66,77.81,27.94,10,17.48,13.41,39.05,9.2,57.69h0a59.39,59.39,0,0,1-8.34,19.91C172.91,179.7,159,193.33,142,205.19c-12.49,8.69-19.94,13.17-26.13,16.7l-2.21,1.26c-7.33,4.17-19.61,11.16-27.07,16.71-8.12,6-16.34,12.83-21.46,21.36ZM127,89.41a71.83,71.83,0,0,1,18.69,2.18c9.66,2.62,16.42,9.2,19.56,19,2.92,9.14,2.23,19.54,1.13,26.66a73.14,73.14,0,0,1-9.08,24.95c-5.42,9.48-14.54,17.21-21.88,22.89a250.14,250.14,0,0,1-21.27,14.23c-4.77,3-9.71,6-14.38,9.24-11.6,8-26,18-31.67,31.89a30.07,30.07,0,0,0-1.82,6.78A120.14,120.14,0,0,1,82,233.74c7.83-5.83,20.36-13,27.85-17.22l2.19-1.25c6-3.45,13.32-7.82,25.56-16.34,16.25-11.31,29.43-24.24,38.13-37.39A51.83,51.83,0,0,0,183,144.16h0c3.74-16.58.53-36.59-8.39-52.23C162.9,71.31,141.19,63.87,104.27,67.8c-2.16.23-4.34.51-6.47.84C81.21,71.23,66,76.25,55,82.76c-4.49,2.65-7.81,6-9.6,9.59-2.33,4.72-2.16,10-2,15.65,0,1.14.08,2.32.1,3.49.09,5.61,1.31,16.78,2,22.6l19.69-2.15c-.28-3.76-.68-9.37-.7-11.91,0-3.84.22-8.79,2.67-13.08a21,21,0,0,1,8.76-8c11-5.72,24.8-7.63,34.21-8.57C115.68,89.85,121.38,89.41,127,89.41Z"/><path d="M43.18,22.78c7.46,10.09,10.57,21.84,7.12,34.69C45.85,74.05,29.68,79,16.73,67.64c-9.61-8.4-14.13-19.42-14-32.13.13-10.9,3.94-20.45,15-24C28.45,8.08,36.36,14.14,43.18,22.78Z"/><path d="M31.58,76.52c-5.71,0-11.55-2.34-16.66-6.81C4.85,60.92-.16,49.4,0,35.48S6,12.39,16.9,8.9c13.46-4.33,22.68,4.87,28.44,12.17l.06.07c8.4,11.38,11,24.19,7.56,37.05C50.59,67,45,73.38,37.52,75.64A20.35,20.35,0,0,1,31.58,76.52ZM23.73,13.28a16.74,16.74,0,0,0-5.15.86C10.05,16.88,5.65,24.08,5.51,35.55c-.15,12.23,4.24,22.33,13,30,5.45,4.76,11.78,6.52,17.38,4.81s9.85-6.65,11.72-13.61c3-11.33.81-22.2-6.65-32.31C35,16.84,29.58,13.28,23.73,13.28Z"/><path d="M90.88,11.9c9.66,12.15,10,30.57.66,38.33-7.37,6.15-17.78,3.85-25.3-5.6-9.58-12-9.79-30.46-.43-38.31C73.34,0,83.17,2.2,90.88,11.9Z"/><path d="M82.31,56.41a15.81,15.81,0,0,1-1.81-.1c-6-.6-11.78-4.14-16.41-10C53.55,33.11,53.52,13,64,4.21A16.93,16.93,0,0,1,76.83.09C82.65.68,88.25,4.17,93,10.18h0c10.6,13.35,10.72,33.44.27,42.17A17,17,0,0,1,82.31,56.41ZM75.13,5.51a11.58,11.58,0,0,0-7.55,2.92c-8.21,6.89-7.81,23.65.82,34.49,3.7,4.65,8.2,7.46,12.65,7.91a11.53,11.53,0,0,0,8.73-2.71c8.15-6.8,7.63-23.57-1.06-34.51h0c-3.78-4.76-8.2-7.61-12.44-8A11.22,11.22,0,0,0,75.13,5.51Z"/><path d="M117.47,6.61c6.62-4.67,13.42-3.46,19.3,3.69,8.45,10.28,7.4,28.27-2.05,36.14-7.67,6.4-14.5,4.21-20.27-2.59C106.09,34,107.29,15.17,117.47,6.61Z"/><path d="M125.7,53c-4.64,0-9.18-2.47-13.35-7.37-4.54-5.35-6.75-13.14-6.06-21.38S110.39,9,115.7,4.5l.18-.14c7.87-5.56,16.26-4,23,4.19,9.35,11.38,8.16,31.2-2.41,40C132.92,51.53,129.28,53,125.7,53ZM119.16,8.79c-4.14,3.54-6.83,9.33-7.38,15.93S113,37.9,116.55,42.07c5.41,6.37,10.62,7.08,16.41,2.26,8.29-6.92,9.14-23.21,1.68-32.28C129.77,6.12,124.56,5,119.16,8.79Z"/><path d="M167.55,21.93c6.42-1.48,11.21,1.67,13.5,9.09,3.3,10.69-3,24.25-12.49,27.28-7.75,2.46-12.26-1.45-14.58-8.57C150.63,39.43,157.24,25.25,167.55,21.93Z"/><path d="M164.18,61.8c-6,0-10.41-3.85-12.82-11.22-1.87-5.76-1.08-12.93,2.11-19.19,3-5.95,7.86-10.36,13.23-12.09l.23-.06c7.94-1.82,14,2.18,16.75,11a26.33,26.33,0,0,1-1.56,18.47c-2.8,6.1-7.44,10.56-12.72,12.24A17.2,17.2,0,0,1,164.18,61.8Zm4.1-37.22c-3.94,1.32-7.55,4.7-9.9,9.31-2.55,5-3.21,10.59-1.78,15,2.7,8.29,7.37,8,11.13,6.79,8.14-2.58,13.53-14.61,10.69-23.83C176.58,25.86,173.26,23.49,168.28,24.58Z"/><path d="M205,47.89c5.68,1.28,8.3,5.61,7.29,12.4-1.45,9.77-11.6,18.2-20.36,17-7.11-1-9.21-5.83-8.35-12.38C184.83,55.39,195.51,46.61,205,47.89Z"/><path d="M193.65,80.14a14.76,14.76,0,0,1-2.11-.15c-7.95-1.11-11.85-6.75-10.7-15.48.72-5.38,4.13-10.88,9.13-14.7,4.75-3.63,10.36-5.33,15.39-4.65l.23,0c7.2,1.63,10.63,7.27,9.41,15.5A23.64,23.64,0,0,1,206.6,75,20.65,20.65,0,0,1,193.65,80.14Zm9.46-29.62a16.53,16.53,0,0,0-9.8,3.67c-3.86,3-6.48,7.08-7,11-1,7.32,2.49,8.81,6,9.3,7.31,1,16-6.37,17.25-14.65,1.14-7.69-3.38-8.9-5.06-9.28A10.58,10.58,0,0,0,203.11,50.52Z"/><path d="M135.38,330.19c-17.56,6.45-38.37,2.23-52.48-9.94A50.55,50.55,0,0,1,69,300.76C62.41,284.33,70,265.7,83.11,254.87c8.75-7.25,18.84-12.56,28.62-18.23,25.76-14.93,53.68-30.4,71.25-55.24,2.17-3.07,3.45-4.76,3.45-4.76s-2.74,17.6-7.7,26c-7.55,12.81-19.12,22.9-31.36,31.1-9.65,6.45-19.6,12.48-28.93,19.41-9.17,6.82-19.19,14.64-23.88,25.37a26,26,0,0,0-2.08,14.63c1.19,7,5.87,13.05,11.67,17.12,12.29,8.62,30,8.51,42.27-.1s18.51-25,15.19-39.7c4.26,6.57,6.83,14.45,6.12,22.26-.67,7.27-4.11,14-8.58,19.81a54.11,54.11,0,0,1-23.77,17.65"/><path d="M118.15,337.65a59.12,59.12,0,0,1-38.15-14,55.12,55.12,0,0,1-15.18-21.2,40.36,40.36,0,0,1-.36-28.12,51.58,51.58,0,0,1,15.81-22.85c7.6-6.3,16.14-11.17,24.4-15.88,1.61-.92,3.23-1.84,4.83-2.77l3.39-2c24.69-14.28,50.21-29,66.46-52,2.18-3.09,3.47-4.8,3.52-4.87l10.69-14.21-2.74,17.57c-.11.75-2.93,18.55-8.26,27.58-7,11.82-17.67,22.46-32.72,32.53-3.14,2.11-6.36,4.2-9.48,6.21-6.42,4.17-13.07,8.48-19.26,13.08-9.49,7.06-18.35,14.17-22.46,23.58a21.42,21.42,0,0,0-1.78,12.1c.91,5.29,4.49,10.47,9.85,14.23,10.7,7.51,26.33,7.47,37.16-.1s16.36-22,13.4-35.08l-5.51-24.38,13.59,21c5.14,7.94,7.56,16.85,6.81,25.09-.69,7.45-3.88,14.9-9.5,22.13a58.19,58.19,0,0,1-25.75,19.09h0A54.35,54.35,0,0,1,118.15,337.65Zm58.92-142c-16.73,18-38.53,30.59-59.72,42.85l-3.39,2q-2.43,1.41-4.88,2.8c-7.93,4.52-16.12,9.19-23.13,15C75.41,267,66.89,283.53,73.09,299.12a46.15,46.15,0,0,0,12.72,17.76c13,11.24,32.33,14.91,48,9.13a50,50,0,0,0,21.79-16.2,40.39,40.39,0,0,0,5.92-10.24A41.42,41.42,0,0,1,149,313.82a41.91,41.91,0,0,1-23.67,7.31h-.15a41.24,41.24,0,0,1-23.55-7.22c-7.29-5.11-12.21-12.4-13.51-20a30.25,30.25,0,0,1,2.39-17.16c5-11.42,14.82-19.36,25.31-27.16,6.42-4.77,13.19-9.16,19.73-13.4,3.09-2,6.28-4.07,9.37-6.14,13.92-9.32,23.73-19,30-29.66A30.55,30.55,0,0,0,177.07,195.68Z"/></g></g></svg>