<svg id="Capa_1" enable-background="new 0 0 512 512" height="512" viewBox="0 0 512 512" width="512" xmlns="http://www.w3.org/2000/svg"><g><path d="m475.527 444.449-41.889-332.449h-77.638v-12c0-55.14-44.86-100-100-100s-100 44.86-100 100v12h-77.638l-41.889 332.448c-.314 2.49-.473 5.031-.473 7.552 0 33.084 26.916 60 60 60h320c33.084 0 60-26.916 60-60 0-2.521-.159-5.062-.473-7.551zm-279.527-344.449c0-33.084 26.916-60 60-60s60 26.916 60 60v12h-120zm220 372h-320c-11.028 0-20-8.972-20-20 0-.855.054-1.713.159-2.55l37.479-297.45h42.362v80h40v-80h120v80h40v-80h42.362l37.479 297.45c.105.837.159 1.695.159 2.55 0 11.028-8.972 20-20 20z"/><path d="m196 283.716v148.284h120v-148.284l-60-60zm80 108.284h-40v-91.716l20-20 20 20z"/></g></svg>