<svg xmlns="http://www.w3.org/2000/svg" viewBox="0 0 165.93 165.93"><defs><style>.cls-1{fill:#f5f5f5;}.cls-2{fill:#fbb040;}.cls-3{fill:#ffe5ba;}.cls-4{fill:#bc8430;}.cls-5{fill:#72bdc4;}.cls-6{fill:#fff;}.cls-7{fill:#72c476;}.cls-8{fill:#569359;}</style></defs><g id="Layer_2" data-name="Layer 2"><g id="Ñëîé_1" data-name="Ñëîé 1"><path class="cls-1" d="M165.93,83A83,83,0,1,1,83,0,83,83,0,0,1,165.93,83Z"/><path class="cls-2" d="M40.05,67.74c0,16,8.07,28.84,22,37L78.86,85.66a13.28,13.28,0,0,1,3.26,1v-61A42.08,42.08,0,0,0,40.05,67.74Z"/><path class="cls-2" d="M124.2,67.74c0,16-8.07,28.84-22,37L85.4,85.66a13.47,13.47,0,0,0-3.28,1v-61A42.08,42.08,0,0,1,124.2,67.74Z"/><path class="cls-3" d="M118.57,69.59c0,17.24-16.31,31.2-36.44,31.2s-36.44-14-36.44-31.2S62,38.39,82.13,38.39,118.57,52.36,118.57,69.59Z"/><path class="cls-2" d="M60.33,44.59s-3.88,20.34-13.25,27S40.85,50.86,60.33,44.59Z"/><path class="cls-3" d="M52.59,76.38a5,5,0,1,1-5-5A5,5,0,0,1,52.59,76.38Z"/><path class="cls-3" d="M111.67,76.38a5,5,0,1,0,5-5A5,5,0,0,0,111.67,76.38Z"/><rect class="cls-3" x="77.53" y="95.05" width="11.07" height="18.84"/><path class="cls-3" d="M59.8,70.63a.76.76,0,1,1-.76-.76A.76.76,0,0,1,59.8,70.63Z"/><path class="cls-4" d="M116,58.06s4-4.72,4.16-8.32A19.22,19.22,0,0,1,114.32,55Z"/><path class="cls-4" d="M60.33,44.59S57,42,52.59,37.78c0,0,3.45,5.74,5.13,16.39A77.23,77.23,0,0,0,60.33,44.59Z"/><path class="cls-4" d="M117,44.89s-8.19-1.71-12.93-5.09C96.07,34.09,87,30.35,71.35,35,71.35,35,104.26,52.88,117,44.89Z"/><path class="cls-2" d="M57,41.82s29.14,27.77,59.64,11.64c3.11-1.64,7.54-8.55,6.6-12.42,0,0-6.6,10.26-23.46-1.62C90.14,32.61,61.2,31.22,57,41.82Z"/><path class="cls-5" d="M131.28,121.4c-1-.92-27.82-10-27.82-10C99,115.9,83,113.91,83,113.91v52h0a83.57,83.57,0,0,0,55.14-20.69C137.07,134.87,135.1,125.08,131.28,121.4Z"/><path class="cls-6" d="M88.6,105.36l14.86,6-11.17,13L83,113.91A8.68,8.68,0,0,0,88.6,105.36Z"/><path class="cls-5" d="M34.65,121.4c1-.92,27.82-10,27.82-10C67,115.9,83,113.91,83,113.91v52h0a83.59,83.59,0,0,1-55.14-20.69C28.85,134.87,30.83,125.08,34.65,121.4Z"/><path class="cls-6" d="M77.53,105.36l-15.06,6,11.16,13L83,113.91S77.53,112.17,77.53,105.36Z"/><path class="cls-7" d="M131,76.09a13.67,13.67,0,0,0-11-13.41V89.5A13.69,13.69,0,0,0,131,76.09Z"/><path class="cls-8" d="M117.31,62.4a13.57,13.57,0,0,0-2.72.28V89.5a13.84,13.84,0,0,0,5.44,0V62.68A13.57,13.57,0,0,0,117.31,62.4Z"/><path class="cls-7" d="M34.94,76.09a13.67,13.67,0,0,1,11-13.41V89.5A13.69,13.69,0,0,1,34.94,76.09Z"/><path class="cls-8" d="M48.62,62.4a13.57,13.57,0,0,1,2.72.28V89.5a13.89,13.89,0,0,1-5.45,0V62.68A13.59,13.59,0,0,1,48.62,62.4Z"/><path class="cls-7" d="M90.17,103.26V99.19c26.94,0,31.21-18,31.38-18.74l4,.85C125.48,81.52,120.52,103.26,90.17,103.26Z"/><path class="cls-8" d="M94.81,101.22a4.13,4.13,0,0,1-4.13,4.14h-7.1a4.13,4.13,0,0,1-4.13-4.14h0a4.13,4.13,0,0,1,4.13-4.13h7.1a4.13,4.13,0,0,1,4.13,4.13Z"/><path class="cls-7" d="M40.43,72.9l-.07-12c0-24.42,19.11-44.27,42.6-44.27s42.61,19.85,42.61,44.26A46,46,0,0,1,124,72.88l-3.93-1.06a41.68,41.68,0,0,0,1.44-10.88c0-22.16-17.29-40.19-38.54-40.19s-38.53,18-38.53,40.19l.07,11.94Z"/></g></g></svg>