<svg xmlns="http://www.w3.org/2000/svg" viewBox="0 0 165.93 165.92"><defs><style>.cls-1{fill:#f5f5f5;}.cls-2{fill:#e68d58;}.cls-3{fill:#ffe5ba;}.cls-4{fill:#ad6a42;}.cls-5{fill:#f14950;}.cls-6{fill:#fff;}.cls-7{fill:#379bc2;}.cls-8{fill:#297492;}</style></defs><g id="Layer_2" data-name="Layer 2"><g id="Ñëîé_1" data-name="Ñëîé 1"><path class="cls-1" d="M165.93,83A83,83,0,1,1,83,0,83,83,0,0,1,165.93,83Z"/><path class="cls-2" d="M40.06,67.74c0,16,8.06,28.84,22,37L78.86,85.66a13.28,13.28,0,0,1,3.26,1v-61A42.07,42.07,0,0,0,40.06,67.74Z"/><path class="cls-2" d="M124.2,67.74c0,16-8.07,28.84-22,37L85.4,85.66a13.47,13.47,0,0,0-3.28,1v-61A42.08,42.08,0,0,1,124.2,67.74Z"/><path class="cls-3" d="M118.57,69.59c0,17.24-16.31,31.2-36.44,31.2s-36.44-14-36.44-31.2S62,38.39,82.13,38.39,118.57,52.36,118.57,69.59Z"/><path class="cls-2" d="M60.33,44.59s-3.88,20.34-13.25,27S40.85,50.86,60.33,44.59Z"/><path class="cls-3" d="M52.59,76.38a5,5,0,1,1-5-5A5,5,0,0,1,52.59,76.38Z"/><path class="cls-3" d="M111.67,76.38a5,5,0,1,0,5-5A5,5,0,0,0,111.67,76.38Z"/><rect class="cls-3" x="77.53" y="95.05" width="11.07" height="18.84"/><path class="cls-3" d="M59.8,70.63a.76.76,0,1,1-.76-.76A.76.76,0,0,1,59.8,70.63Z"/><path class="cls-4" d="M116,58.06s4-4.72,4.16-8.32A19.22,19.22,0,0,1,114.32,55Z"/><path class="cls-4" d="M60.33,44.59S57,42,52.59,37.78c0,0,3.45,5.74,5.13,16.39A77.23,77.23,0,0,0,60.33,44.59Z"/><path class="cls-4" d="M117,44.89s-8.19-1.71-12.93-5.09C96.07,34.08,87,30.34,71.35,35,71.35,35,104.26,52.88,117,44.89Z"/><path class="cls-2" d="M57,41.82s29.14,27.77,59.64,11.64c3.11-1.65,7.54-8.55,6.6-12.43,0,0-6.6,10.27-23.46-1.61C90.14,32.61,61.2,31.21,57,41.82Z"/><path class="cls-5" d="M131.28,121.4c-1-.93-27.82-10.05-27.82-10.05C99,115.9,83,113.91,83,113.91v52h0a83.57,83.57,0,0,0,55.14-20.68C137.07,134.87,135.1,125.07,131.28,121.4Z"/><path class="cls-6" d="M88.6,105.35l14.86,6-11.17,13L83,113.91A8.68,8.68,0,0,0,88.6,105.35Z"/><path class="cls-5" d="M34.65,121.4c1-.93,27.82-10.05,27.82-10.05C67,115.9,83,113.91,83,113.91v52h0a83.59,83.59,0,0,1-55.14-20.68C28.85,134.87,30.83,125.07,34.65,121.4Z"/><path class="cls-6" d="M77.53,105.35l-15.06,6,11.16,13L83,113.91S77.53,112.17,77.53,105.35Z"/><path class="cls-7" d="M130.15,76.63a13.68,13.68,0,0,0-11-13.41V90A13.68,13.68,0,0,0,130.15,76.63Z"/><path class="cls-8" d="M116.47,63a13.56,13.56,0,0,0-2.72.27V90a13.84,13.84,0,0,0,5.44,0V63.22A13.49,13.49,0,0,0,116.47,63Z"/><path class="cls-7" d="M34.1,76.63A13.68,13.68,0,0,1,45.05,63.22V90A13.68,13.68,0,0,1,34.1,76.63Z"/><path class="cls-8" d="M47.78,63a13.56,13.56,0,0,1,2.72.27V90a13.89,13.89,0,0,1-5.45,0V63.22A13.59,13.59,0,0,1,47.78,63Z"/><path class="cls-7" d="M89.33,103.26v-3c27.4,0,31.73-18.37,31.9-19.15l2.93.62C124.12,82,119.25,103.26,89.33,103.26Z"/><path class="cls-8" d="M94,101.76a4.13,4.13,0,0,1-4.13,4.14h-7.1a4.13,4.13,0,0,1-4.13-4.14h0a4.13,4.13,0,0,1,4.13-4.13h7.1A4.13,4.13,0,0,1,94,101.76Z"/><path class="cls-7" d="M40.13,73.44l-.08-11.95c0-24.12,18.88-43.73,42.07-43.73S124.2,37.37,124.2,61.48a45.27,45.27,0,0,1-1.57,11.8l-2.89-.78a42.7,42.7,0,0,0,1.46-11c0-22.45-17.53-40.72-39.08-40.72S43.05,39,43.05,61.48l.08,11.94Z"/></g></g></svg>