<svg xmlns="http://www.w3.org/2000/svg" viewBox="0 0 165.92 165.93"><defs><style>.cls-1{fill:#f5f5f5;}.cls-2{fill:#5b4842;}.cls-3{fill:#ffe5ba;}.cls-4{fill:#7c6d68;}.cls-5{fill:#ededed;}.cls-6{fill:#fff;}.cls-7{fill:#379bc2;}.cls-8{fill:#297492;}</style></defs><g id="Layer_2" data-name="Layer 2"><g id="Ñëîé_1" data-name="Ñëîé 1"><circle class="cls-1" cx="82.96" cy="82.96" r="82.96"/><path class="cls-2" d="M103.12,31.25s-37.63,3.44-48.06-8.44c0,0,38.85-21.11,55.7,7.18,0,0,13.17,3.88,10.51,20.13,0,0-2.92-4.11-7.17-3.62S103.12,31.25,103.12,31.25Z"/><path class="cls-3" d="M116.93,69.49c0,16.76-14.52,31.29-34.09,31.29S47.4,87.19,47.4,70.43c0-43.84,15.19-44.88,34.76-44.88S116.93,30.09,116.93,69.49Z"/><path class="cls-3" d="M54.11,77.49a4.85,4.85,0,1,1-4.85-4.85A4.86,4.86,0,0,1,54.11,77.49Z"/><path class="cls-3" d="M111.56,77.49a4.86,4.86,0,1,0,4.85-4.85A4.86,4.86,0,0,0,111.56,77.49Z"/><rect class="cls-3" x="76.87" y="99.41" width="10.58" height="15.46"/><path class="cls-2" d="M84.54,20.79C58.81,17.92,52,27.69,50.27,38.4c0,0,3.82,8.66,32.19,8.66S113.3,38.4,113.3,38.4C107.71,24.49,93.21,21.76,84.54,20.79Z"/><path class="cls-2" d="M110.73,30.78s-27-20-62.87-5.45c0,0,19,9.38,24.43,8.35S111.9,30.75,110.73,30.78Z"/><path class="cls-2" d="M116.55,73s7.56-30.27-3.25-34.55c-1.85-.74-5.56,4.36-5.56,4.36S107.32,54.79,116.55,73Z"/><path class="cls-2" d="M47.58,73s-7.69-30.81,3.12-35.1c1.85-.73,5.69,4.91,5.69,4.91S56.81,54.79,47.58,73Z"/><path class="cls-2" d="M55.15,41.12a16.21,16.21,0,0,1-10.22-8.78,119.55,119.55,0,0,1,15.14-6.79C66.23,23.15,55.15,41.12,55.15,41.12Z"/><path class="cls-4" d="M110.32,39.19c-3.62,4.38-48.39,10.55-64.27-6,0,0,36.91,8.87,59.24,2.46C109.85,34.36,112.58,36.47,110.32,39.19Z"/><path class="cls-2" d="M131.15,121.22c-1-.92-21-7.49-21-7.49-4.48,4.54-28.44,1.7-28.44,1.7v.11l1.13-.05v50.26h0A83.59,83.59,0,0,0,138,145.06C137,134.69,135,124.9,131.15,121.22Z"/><path class="cls-2" d="M34.52,121.22c1-.92,21-7.49,21-7.49C60,118.27,84,115.43,84,115.43v.11l-1.13-.05v50.26h0A83.57,83.57,0,0,1,27.7,145.06C28.73,134.69,30.7,124.9,34.52,121.22Z"/><path class="cls-5" d="M82.84,143.64s-9.59.46-10.25,0S68.92,128.38,69,126.08s.69-10,3.59-10,24.54-5.73,27.49-1.15S92.94,149.49,82.84,143.64Z"/><path class="cls-2" d="M82.84,113.73V125.2H79.78A39.5,39.5,0,0,1,76,117.1S79.09,114,82.84,113.73Z"/><path class="cls-2" d="M82.84,113.73V125.2H85.9a38.9,38.9,0,0,0,3.82-8.1S86.59,114,82.84,113.73Z"/><path class="cls-6" d="M76.87,105.18l-14.52,6,11.08,12.95,9.41-10.4S77.05,111.54,76.87,105.18Z"/><path class="cls-6" d="M87.45,105.29l15.88,5.89L92.17,124.13l-9.33-10.4S87.4,111.76,87.45,105.29Z"/><path class="cls-2" d="M79.78,125.2c-3.2,9.34-3.82,24.86-3.82,24.86L82.84,163V125.2Z"/><path class="cls-2" d="M85.9,125.2H82.84V163l8.06-12.42S90.51,136.67,85.9,125.2Z"/><polygon class="cls-4" points="97.86 109.15 110.15 113.73 103.33 124.13 107.64 130.33 82.84 162.99 97.86 109.15"/><polygon class="cls-4" points="67.17 109.18 54.88 113.77 61.7 124.17 57.39 130.36 82.19 163.02 67.17 109.18"/><path class="cls-7" d="M125.74,71.94a12.53,12.53,0,0,0-10-12.28V84.21A12.52,12.52,0,0,0,125.74,71.94Z"/><path class="cls-8" d="M113.22,59.41a12.74,12.74,0,0,0-2.49.25V84.21a12.58,12.58,0,0,0,5,0V59.66A12.85,12.85,0,0,0,113.22,59.41Z"/><path class="cls-7" d="M37.83,71.94a12.53,12.53,0,0,1,10-12.28V84.21A12.52,12.52,0,0,1,37.83,71.94Z"/><path class="cls-8" d="M50.35,59.41a12.74,12.74,0,0,1,2.49.25V84.21a12.53,12.53,0,0,1-5,0V59.66A12.74,12.74,0,0,1,50.35,59.41Z"/><path class="cls-7" d="M88.39,97V92.91c24.49,0,28.39-16.33,28.54-17l4,.85C120.87,76.94,116.29,97,88.39,97Z"/><path class="cls-8" d="M92.63,94.94a3.78,3.78,0,0,1-3.78,3.78h-6.5a3.78,3.78,0,0,1-3.78-3.78h0a3.78,3.78,0,0,1,3.78-3.78h6.5a3.78,3.78,0,0,1,3.78,3.78Z"/><path class="cls-7" d="M119.5,69,115.57,68a38.15,38.15,0,0,0,1.31-9.91c0-20.19-15.74-36.61-35.09-36.61s-35.1,16.42-35.1,36.61L46.76,69l-4.07,0-.07-10.94c0-22.44,17.57-40.69,39.17-40.69S121,35.64,121,58.07A41.94,41.94,0,0,1,119.5,69Z"/></g></g></svg>