<svg xmlns="http://www.w3.org/2000/svg" viewBox="0 0 165.92 165.93"><defs><style>.cls-1{fill:#f5f5f5;}.cls-2{fill:#e69962;}.cls-3{fill:#ffe5ba;}.cls-4{fill:#ebad81;}.cls-5{fill:#406187;}.cls-6{fill:#ededed;}.cls-7{fill:#3b2525;}.cls-8{fill:#4f3131;}.cls-9{fill:#fff;}.cls-10{fill:#7088a5;}.cls-11{fill:#379bc2;}.cls-12{fill:#297492;}</style></defs><g id="Layer_2" data-name="Layer 2"><g id="Ñëîé_1" data-name="Ñëîé 1"><path class="cls-1" d="M165.92,83A83,83,0,1,1,83,0,83,83,0,0,1,165.92,83Z"/><path class="cls-2" d="M102.33,31.25S64.7,34.69,54.27,22.81c0,0,38.85-21.11,55.69,7.18,0,0,13.18,3.88,10.52,20.13,0,0-2.93-4.11-7.18-3.62S102.33,31.25,102.33,31.25Z"/><path class="cls-3" d="M116.14,69.49c0,16.76-14.52,31.29-34.09,31.29S46.61,87.19,46.61,70.43c0-43.85,15.19-44.88,34.76-44.88S116.14,30.09,116.14,69.49Z"/><path class="cls-3" d="M53.32,77.49a4.85,4.85,0,1,1-4.85-4.85A4.86,4.86,0,0,1,53.32,77.49Z"/><path class="cls-3" d="M110.77,77.49a4.86,4.86,0,1,0,4.85-4.85A4.86,4.86,0,0,0,110.77,77.49Z"/><rect class="cls-3" x="76.08" y="99.41" width="10.58" height="15.46"/><path class="cls-2" d="M83.75,20.79C58,17.92,51.21,27.69,49.48,38.39c0,0,3.81,8.67,32.19,8.67s30.84-8.67,30.84-8.67C106.92,24.49,92.41,21.76,83.75,20.79Z"/><path class="cls-2" d="M109.94,30.78s-27-20-62.88-5.45c0,0,19,9.38,24.44,8.35S111.11,30.75,109.94,30.78Z"/><path class="cls-2" d="M115.76,73s7.56-30.27-3.25-34.56c-1.85-.73-5.56,4.37-5.56,4.37S106.53,54.79,115.76,73Z"/><path class="cls-2" d="M46.79,73s-7.69-30.81,3.12-35.1c1.85-.73,5.68,4.91,5.68,4.91S56,54.79,46.79,73Z"/><path class="cls-2" d="M54.36,41.11a16.2,16.2,0,0,1-10.23-8.77,120.48,120.48,0,0,1,15.14-6.79C65.44,23.15,54.36,41.11,54.36,41.11Z"/><path class="cls-4" d="M109.53,39.19c-3.62,4.38-48.39,10.55-64.27-6,0,0,36.91,8.87,59.23,2.46C109.06,34.36,111.78,36.47,109.53,39.19Z"/><path class="cls-5" d="M130.36,121.22c-1-.92-21-7.49-21-7.49-4.49,4.54-28.44,1.7-28.44,1.7v.11l1.13-.05v50.26h0a83.59,83.59,0,0,0,55.14-20.69C136.16,134.69,134.18,124.9,130.36,121.22Z"/><path class="cls-5" d="M33.73,121.22c1-.92,21-7.49,21-7.49,4.48,4.54,28.44,1.7,28.44,1.7v.11l-1.13-.05v50.26h0a83.56,83.56,0,0,1-55.14-20.69C27.94,134.69,29.91,124.9,33.73,121.22Z"/><path class="cls-6" d="M82.05,143.64s-9.59.45-10.25,0-3.67-15.26-3.6-17.56.7-10,3.6-10,24.54-5.73,27.49-1.15S92.15,149.49,82.05,143.64Z"/><path class="cls-7" d="M82.05,113.73V125.2H79a39.22,39.22,0,0,1-3.83-8.1S78.3,114,82.05,113.73Z"/><path class="cls-8" d="M82.05,113.73V125.2h3.06a39.5,39.5,0,0,0,3.82-8.1S85.79,114,82.05,113.73Z"/><path class="cls-9" d="M76.08,105.18l-14.52,6,11.08,12.95,9.41-10.4S76.26,111.54,76.08,105.18Z"/><path class="cls-9" d="M86.66,105.29l15.88,5.89L91.38,124.13l-9.33-10.4S86.61,111.76,86.66,105.29Z"/><path class="cls-7" d="M79,125.2c-3.2,9.34-3.83,24.86-3.83,24.86L82.05,163V125.2Z"/><path class="cls-8" d="M85.11,125.2H82.05V163l8.06-12.42S89.72,136.67,85.11,125.2Z"/><polygon class="cls-10" points="97.06 109.15 109.36 113.73 102.54 124.13 106.84 130.33 82.05 162.99 97.06 109.15"/><polygon class="cls-10" points="66.38 109.18 54.09 113.77 60.9 124.17 56.6 130.36 81.4 163.02 66.38 109.18"/><path class="cls-11" d="M125,71.93a12.52,12.52,0,0,0-10-12.27V84.21A12.53,12.53,0,0,0,125,71.93Z"/><path class="cls-12" d="M112.43,59.41a12.74,12.74,0,0,0-2.49.25V84.21a12.53,12.53,0,0,0,5,0V59.66A12.74,12.74,0,0,0,112.43,59.41Z"/><path class="cls-11" d="M37,71.93a12.53,12.53,0,0,1,10-12.27V84.21A12.54,12.54,0,0,1,37,71.93Z"/><path class="cls-12" d="M49.56,59.41a12.82,12.82,0,0,1,2.49.25V84.21a12.58,12.58,0,0,1-5,0V59.66A12.85,12.85,0,0,1,49.56,59.41Z"/><path class="cls-11" d="M87.59,96.44v-3c25,0,28.92-16.73,29.07-17.44l2.94.63C119.55,76.83,115.07,96.44,87.59,96.44Z"/><path class="cls-12" d="M91.84,94.94a3.78,3.78,0,0,1-3.78,3.78h-6.5a3.78,3.78,0,0,1-3.78-3.78h0a3.78,3.78,0,0,1,3.78-3.78h6.5a3.78,3.78,0,0,1,3.78,3.78Z"/><path class="cls-11" d="M42.43,69l-.07-10.94c0-22.15,17.33-40.16,38.63-40.16s38.64,18,38.64,40.15a41.36,41.36,0,0,1-1.44,10.83l-2.89-.78a38.8,38.8,0,0,0,1.33-10.05c0-20.48-16-37.15-35.64-37.15S45.36,37.59,45.36,58.07L45.43,69Z"/></g></g></svg>